# Blender v2.91.0 OBJ File: 'asteroid1.blend'
# www.blender.org
mtllib asteroid1.mtl
o Cube
v 0.403772 0.403772 0.403772
v -0.403772 0.449370 -0.210934
v -0.406688 0.403772 0.623921
v -0.319210 -0.231814 0.403772
v 0.228618 -0.070042 -0.248620
vt 0.375000 0.000000
vt 0.625000 0.000000
vt 0.625000 0.250000
vt 0.625000 0.750000
vt 0.875000 0.500000
vt 0.875000 0.750000
vt 0.375000 1.000000
vt 0.625000 1.000000
vt 0.000000 0.000000
vt 0.000000 0.000000
vt 0.000000 0.000000
vt 0.000000 0.000000
vn -0.9911 -0.1327 -0.0107
vn 0.0148 0.9984 0.0546
vn 0.2512 -0.2857 0.9248
vn -0.5309 -0.6031 -0.5953
vn 0.6196 -0.7048 0.3455
vn 0.4888 0.6382 -0.5948
usemtl Material
s off
f 4/1/1 3/2/1 2/3/1
f 1/4/2 2/5/2 3/6/2
f 4/7/3 1/4/3 3/8/3
f 2/9/4 5/10/4 4/11/4
f 4/11/5 5/10/5 1/12/5
f 5/10/6 2/9/6 1/12/6
