# Blender v2.91.0 OBJ File: 'player_ship_02.blend'
# www.blender.org
mtllib player_ship_02.mtl
o Cube.003
v 1.433492 -0.965124 -1.058696
v 0.746359 -0.154274 1.679017
v 2.013109 -0.463947 0.350536
v 2.379519 -0.553520 -1.744907
v 1.678669 -0.512684 -1.058696
v 1.174226 -0.258872 -1.272605
v 1.154907 1.173588 -1.058696
v 0.687848 0.294916 1.679017
v 1.855292 0.747626 0.350536
v 2.192977 0.878574 -1.744907
v 1.513332 0.756617 -1.058696
v 1.082173 0.447827 -1.272605
v -1.433492 -0.965124 -1.058696
v -0.746359 -0.154274 1.679017
v -2.013109 -0.463947 0.350536
v -2.379519 -0.553520 -1.744907
v -1.678669 -0.512684 -1.058696
v -1.174226 -0.258872 -1.272605
v -1.154906 1.173588 -1.058696
v -0.687848 0.294916 1.679017
v -1.855292 0.747626 0.350536
v -2.192976 0.878574 -1.744907
v -1.513332 0.756617 -1.058696
v -1.082173 0.447827 -1.272605
v 0.000000 0.461213 0.048932
v 0.000000 -0.000000 0.647575
v 0.647575 0.000000 0.000000
v 0.000000 -0.442874 -0.000000
v 0.000000 0.000000 -2.265178
v 0.554701 0.000000 -0.324867
v -0.647575 0.000000 0.000000
v -0.554701 0.000000 -0.324867
v 0.000000 0.554218 -0.324867
v 0.925632 0.130170 -0.173696
v 0.716839 0.000000 -0.173696
v 0.925632 -0.000000 0.035097
v 0.925632 -0.130170 -0.173696
v 1.134425 0.000000 -0.173696
v 0.925632 0.000000 -0.382489
v -0.925632 0.130170 -0.173696
v -0.716839 0.000000 -0.173696
v -0.925632 -0.000000 0.035097
v -0.925632 -0.130170 -0.173696
v -1.134425 0.000000 -0.173696
v -0.925632 0.000000 -0.382489
vt 0.000000 0.000000
vt 0.000000 0.000000
vt 0.000000 0.000000
vt 0.000000 0.000000
vt 0.000000 0.000000
vt 0.000000 0.000000
vt 0.000000 0.000000
vt 0.000000 0.000000
vt 0.000000 0.000000
vt 0.000000 0.000000
vt 0.000000 0.000000
vt 0.000000 0.000000
vt 0.000000 0.000000
vt 0.000000 0.000000
vt 0.000000 0.000000
vt 0.000000 0.000000
vt 0.000000 0.000000
vt 0.000000 0.000000
vt 0.000000 0.000000
vt 0.000000 0.000000
vt 0.000000 0.000000
vt 0.000000 0.000000
vt 0.000000 0.000000
vt 0.000000 0.000000
vt 0.000000 0.000000
vt 0.000000 0.000000
vt 0.000000 0.000000
vt 0.000000 0.000000
vt 0.000000 0.000000
vt 0.000000 0.000000
vt 0.000000 0.000000
vt 0.000000 0.000000
vt 0.000000 0.000000
vt 0.000000 0.000000
vt 0.000000 0.000000
vt 0.000000 0.000000
vt 0.000000 0.000000
vt 0.000000 0.000000
vt 0.000000 0.000000
vt 0.000000 0.000000
vt 0.000000 0.000000
vt 0.000000 0.000000
vt 0.000000 0.000000
vt 0.000000 0.000000
vt 0.000000 0.000000
vn 0.0852 -0.9493 0.3026
vn 0.4676 -0.8759 0.1192
vn 0.3116 -0.1688 -0.9351
vn -0.6450 0.3495 -0.6796
vn -0.9196 -0.3740 -0.1201
vn 0.1139 0.9916 -0.0613
vn 0.4385 0.8982 0.0317
vn -0.0267 0.9531 0.3014
vn 0.3401 0.9336 0.1131
vn 0.2846 0.2447 -0.9269
vn -0.5730 -0.4925 -0.6550
vn -0.9830 0.1352 -0.1243
vn 0.2334 -0.9704 -0.0628
vn 0.5708 -0.8204 0.0338
vn -0.0852 -0.9493 0.3026
vn -0.4676 -0.8759 0.1192
vn -0.3116 -0.1688 -0.9351
vn 0.6450 0.3495 -0.6796
vn 0.9196 -0.3740 -0.1201
vn -0.1139 0.9916 -0.0613
vn -0.4385 0.8982 0.0317
vn 0.0267 0.9531 0.3014
vn -0.3401 0.9336 0.1131
vn -0.2846 0.2447 -0.9269
vn 0.5730 -0.4925 -0.6550
vn 0.9830 0.1352 -0.1243
vn -0.2334 -0.9704 -0.0628
vn -0.5708 -0.8204 0.0338
vn 0.5210 0.6762 0.5210
vn 0.5573 -0.8149 -0.1593
vn -0.5573 -0.8149 -0.1593
vn 0.4916 -0.7188 0.4916
vn -0.6928 0.6934 -0.1981
vn -0.5210 0.6762 0.5210
vn -0.4916 -0.7188 0.4916
vn 0.6455 0.7636 0.0158
vn 0.6928 0.6934 -0.1981
vn -0.6455 0.7636 0.0158
vn -0.4676 0.7501 0.4676
vn 0.4676 -0.7501 0.4676
vn 0.4676 -0.7501 -0.4676
vn -0.4676 -0.7501 0.4676
vn 0.4676 0.7501 -0.4676
vn -0.4676 0.7501 -0.4676
vn -0.4676 -0.7501 -0.4676
vn 0.4676 0.7501 0.4676
usemtl Material.001
s 1
f 1/1/1 3/2/1 2/3/1
f 3/2/2 1/1/2 4/4/2
f 5/5/3 1/1/3 6/6/3
f 1/1/4 5/5/4 4/4/4
f 1/1/5 2/3/5 6/6/5
f 2/3/6 3/2/6 4/4/6 5/5/6
f 6/6/7 2/3/7 5/5/7
f 7/7/8 8/8/8 9/9/8
f 9/9/9 10/10/9 7/7/9
f 11/11/10 12/12/10 7/7/10
f 7/7/11 10/10/11 11/11/11
f 7/7/12 12/12/12 8/8/12
f 8/8/13 11/11/13 10/10/13 9/9/13
f 12/12/14 11/11/14 8/8/14
f 13/13/15 14/14/15 15/15/15
f 15/15/16 16/16/16 13/13/16
f 17/17/17 18/18/17 13/13/17
f 13/13/18 16/16/18 17/17/18
f 13/13/19 18/18/19 14/14/19
f 14/14/20 17/17/20 16/16/20 15/15/20
f 18/18/21 17/17/21 14/14/21
f 19/19/22 21/20/22 20/21/22
f 21/20/23 19/19/23 22/22/23
f 23/23/24 19/19/24 24/24/24
f 19/19/25 23/23/25 22/22/25
f 19/19/26 20/21/26 24/24/26
f 20/21/27 21/20/27 22/22/27 23/23/27
f 24/24/28 20/21/28 23/23/28
f 25/25/29 26/26/29 27/27/29
f 28/28/30 29/29/30 30/30/30 27/27/30
f 29/29/31 28/28/31 31/31/31 32/32/31
f 27/27/32 26/26/32 28/28/32
f 33/33/33 29/29/33 32/32/33
f 26/26/34 25/25/34 31/31/34
f 26/26/35 31/31/35 28/28/35
f 30/30/36 33/33/36 25/25/36 27/27/36
f 29/29/37 33/33/37 30/30/37
f 25/25/38 33/33/38 32/32/38 31/31/38
f 34/34/39 35/35/39 36/36/39
f 37/37/40 38/38/40 36/36/40
f 38/38/41 37/37/41 39/39/41
f 36/36/42 35/35/42 37/37/42
f 34/34/43 38/38/43 39/39/43
f 35/35/44 34/34/44 39/39/44
f 35/35/45 39/39/45 37/37/45
f 38/38/46 34/34/46 36/36/46
f 40/40/46 42/41/46 41/42/46
f 43/43/42 42/41/42 44/44/42
f 44/44/45 45/45/45 43/43/45
f 42/41/40 43/43/40 41/42/40
f 40/40/44 45/45/44 44/44/44
f 41/42/43 45/45/43 40/40/43
f 41/42/41 43/43/41 45/45/41
f 44/44/39 42/41/39 40/40/39
