# Blender 4.2.0
# www.blender.org
mtllib player_ship_01.mtl
o Cube.002
v 0.000000 -0.442874 0.000000
v -0.000000 0.461213 0.048932
v -0.000000 -0.000000 -2.265178
v 0.000000 0.000000 0.647575
v -0.647575 -0.000000 0.000000
v 0.647575 0.000000 -0.000000
v 0.554701 0.000000 -0.324867
v -0.554701 -0.000000 -0.324867
v -0.000000 0.554218 -0.324867
v -1.705645 -0.827965 0.197597
v -1.705645 0.827965 0.197597
v -0.731155 0.000000 2.935310
v -2.331047 -0.000000 -0.488615
v -1.972101 -0.000000 1.606829
v -1.150306 0.000000 -0.016313
v 1.705645 -0.827965 0.197597
v 1.705645 0.827965 0.197597
v 0.731155 -0.000000 2.935310
v 2.331047 0.000000 -0.488615
v 1.972101 0.000000 1.606829
v 1.150306 0.000000 -0.016313
v 0.925632 -0.130170 -0.173696
v 0.925632 0.130170 -0.173696
v 1.134425 0.000000 -0.173696
v 0.716839 0.000000 -0.173696
v 0.925632 0.000000 -0.382489
v 0.925632 0.000000 0.035097
v -0.925632 -0.130170 -0.173696
v -0.925632 0.130170 -0.173696
v -1.134425 0.000000 -0.173696
v -0.716839 0.000000 -0.173696
v -0.925632 0.000000 -0.382489
v -0.925632 -0.000000 0.035097
vn 0.5210 0.6762 0.5210
vn 0.5573 -0.8149 -0.1593
vn -0.5573 -0.8149 -0.1593
vn 0.4916 -0.7188 0.4916
vn -0.6928 0.6934 -0.1981
vn -0.5210 0.6762 0.5210
vn -0.4916 -0.7188 0.4916
vn 0.6455 0.7636 0.0158
vn 0.6928 0.6934 -0.1981
vn -0.6455 0.7636 0.0158
vn -0.8435 0.5174 0.1445
vn -0.4254 -0.8131 0.3973
vn -0.8435 -0.5174 0.1445
vn 0.8109 0.5737 -0.1152
vn -0.4254 0.8131 0.3973
vn -0.3594 -0.0000 -0.9332
vn 0.8109 -0.5737 -0.1152
vn 0.7391 -0.0000 -0.6736
vn -0.8435 -0.5174 -0.1445
vn -0.4254 0.8131 -0.3973
vn -0.8435 0.5174 -0.1445
vn 0.8109 -0.5737 0.1152
vn -0.4254 -0.8131 -0.3973
vn -0.3594 -0.0000 0.9332
vn 0.8109 0.5737 0.1152
vn 0.7391 -0.0000 0.6736
vn -0.4676 0.7501 0.4676
vn 0.4676 -0.7501 0.4676
vn 0.4676 -0.7501 -0.4676
vn -0.4676 -0.7501 0.4676
vn 0.4676 0.7501 -0.4676
vn -0.4676 0.7501 -0.4676
vn -0.4676 -0.7501 -0.4676
vn 0.4676 0.7501 0.4676
vt 0.000000 0.000000
s 0
usemtl Material
f 2/1/1 4/1/1 6/1/1
f 1/1/2 3/1/2 7/1/2 6/1/2
f 3/1/3 1/1/3 5/1/3 8/1/3
f 6/1/4 4/1/4 1/1/4
f 9/1/5 3/1/5 8/1/5
f 4/1/6 2/1/6 5/1/6
f 4/1/7 5/1/7 1/1/7
f 7/1/8 9/1/8 2/1/8 6/1/8
f 3/1/9 9/1/9 7/1/9
f 2/1/10 9/1/10 8/1/10 5/1/10
f 11/1/11 13/1/11 14/1/11
f 10/1/12 12/1/12 14/1/12
f 14/1/13 13/1/13 10/1/13
f 11/1/14 12/1/14 15/1/14
f 12/1/15 11/1/15 14/1/15
f 15/1/16 10/1/16 11/1/16
f 10/1/17 15/1/17 12/1/17
f 11/1/18 10/1/18 13/1/18
f 17/1/19 19/1/19 20/1/19
f 16/1/20 18/1/20 20/1/20
f 20/1/21 19/1/21 16/1/21
f 17/1/22 18/1/22 21/1/22
f 18/1/23 17/1/23 20/1/23
f 21/1/24 16/1/24 17/1/24
f 16/1/25 21/1/25 18/1/25
f 17/1/26 16/1/26 19/1/26
f 23/1/27 25/1/27 27/1/27
f 22/1/28 24/1/28 27/1/28
f 24/1/29 22/1/29 26/1/29
f 27/1/30 25/1/30 22/1/30
f 23/1/31 24/1/31 26/1/31
f 25/1/32 23/1/32 26/1/32
f 25/1/33 26/1/33 22/1/33
f 24/1/34 23/1/34 27/1/34
f 29/1/33 31/1/33 33/1/33
f 28/1/31 30/1/31 33/1/31
f 30/1/34 28/1/34 32/1/34
f 33/1/32 31/1/32 28/1/32
f 29/1/28 30/1/28 32/1/28
f 31/1/30 29/1/30 32/1/30
f 31/1/27 32/1/27 28/1/27
f 30/1/29 29/1/29 33/1/29
